HIERARCHY
ROOT Hips
{
	OFFSET 0.000000 0.000000 0.000000
	CHANNELS 6 Xposition Yposition Zposition Zrotation Yrotation Xrotation 
	JOINT LHipJoint
	{
		OFFSET 0.000000 0.000000 0.000000
		CHANNELS 3 Zrotation Yrotation Xrotation
		JOINT LeftUpLeg
		{
			OFFSET 1.363060 -1.794630 0.839290
			CHANNELS 3 Zrotation Yrotation Xrotation
			JOINT LeftLeg
			{
				OFFSET 2.448110 -6.726130 0.000000
				CHANNELS 3 Zrotation Yrotation Xrotation
				JOINT LeftFoot
				{
					OFFSET 2.562200 -7.039590 0.000000
					CHANNELS 3 Zrotation Yrotation Xrotation
					JOINT LeftToeBase
					{
						OFFSET 0.157640 -0.433110 2.322550
						CHANNELS 3 Zrotation Yrotation Xrotation
						End Site
						{
							OFFSET 0.000000 0.000000 0.000000
						}
					}
				}
			}
		}
	}
	JOINT RHipJoint
	{
		OFFSET 0.000000 0.000000 0.000000
		CHANNELS 3 Zrotation Yrotation Xrotation
		JOINT RightUpLeg
		{
			OFFSET -1.305520 -1.794630 0.839290
			CHANNELS 3 Zrotation Yrotation Xrotation
			JOINT RightLeg
			{
				OFFSET -2.542530 -6.985550 0.000000
				CHANNELS 3 Zrotation Yrotation Xrotation
				JOINT RightFoot
				{
					OFFSET -2.568260 -7.056230 0.000000
					CHANNELS 3 Zrotation Yrotation Xrotation
					JOINT RightToeBase
					{
						OFFSET -0.164730 -0.452590 2.363150
						CHANNELS 3 Zrotation Yrotation Xrotation
						End Site
						{
							OFFSET 0.000000 0.000000 0.000000
						}
					}
				}
			}
		}
	}
	JOINT LowerBack
	{
		OFFSET 0.000000 0.000000 0.000000
		CHANNELS 3 Zrotation Yrotation Xrotation
		JOINT Spine
		{
			OFFSET 0.028270 2.035590 -0.193380
			CHANNELS 3 Zrotation Yrotation Xrotation
			JOINT Spine1
			{
				OFFSET 0.056720 2.048850 -0.042750
				CHANNELS 3 Zrotation Yrotation Xrotation
				JOINT Neck
				{
					OFFSET 0.000000 0.000000 0.000000
					CHANNELS 3 Zrotation Yrotation Xrotation
					JOINT Neck1
					{
						OFFSET -0.054170 1.746240 0.172020
						CHANNELS 3 Zrotation Yrotation Xrotation
						JOINT Head
						{
							OFFSET 0.104070 1.761360 -0.123970
							CHANNELS 3 Zrotation Yrotation Xrotation
							End Site
							{
								OFFSET 0.000000 0.000000 0.000000
							}
						}
					}
				}
				JOINT LeftShoulder
				{
					OFFSET 0.000000 0.000000 0.000000
					CHANNELS 3 Zrotation Yrotation Xrotation
					JOINT LeftArm
					{
						OFFSET 3.362410 1.200890 -0.311210
						CHANNELS 3 Zrotation Yrotation Xrotation
						JOINT LeftForeArm
						{
							OFFSET 4.983000 -0.000000 -0.000000
							CHANNELS 3 Zrotation Yrotation Xrotation
							JOINT LeftHand
							{
								OFFSET 3.483560 -0.000000 -0.000000
								CHANNELS 3 Zrotation Yrotation Xrotation
								JOINT LeftFingerBase
								{
									OFFSET 0.000000 0.000000 0.000000
									CHANNELS 3 Zrotation Yrotation Xrotation
									JOINT LeftHandIndex1
									{
										OFFSET 0.715260 -0.000000 -0.000000
										CHANNELS 3 Zrotation Yrotation Xrotation
										End Site
										{
											OFFSET 0.000000 0.000000 0.000000
										}
									}
								}
								JOINT LThumb
								{
									OFFSET 0.000000 0.000000 0.000000
									CHANNELS 3 Zrotation Yrotation Xrotation
									End Site
									{
										OFFSET 0.000000 0.000000 0.000000
									}
								}
							}
						}
					}
				}
				JOINT RightShoulder
				{
					OFFSET 0.000000 0.000000 0.000000
					CHANNELS 3 Zrotation Yrotation Xrotation
					JOINT RightArm
					{
						OFFSET -3.136600 1.374050 -0.404650
						CHANNELS 3 Zrotation Yrotation Xrotation
						JOINT RightForeArm
						{
							OFFSET -5.241900 -0.000000 -0.000000
							CHANNELS 3 Zrotation Yrotation Xrotation
							JOINT RightHand
							{
								OFFSET -3.444170 -0.000000 -0.000000
								CHANNELS 3 Zrotation Yrotation Xrotation
								JOINT RightFingerBase
								{
									OFFSET 0.000000 0.000000 0.000000
									CHANNELS 3 Zrotation Yrotation Xrotation
									JOINT RightHandIndex1
									{
										OFFSET -0.622530 -0.000000 -0.000000
										CHANNELS 3 Zrotation Yrotation Xrotation
										End Site
										{
											OFFSET 0.000000 0.000000 0.000000
										}
									}
								}
								JOINT RThumb
								{
									OFFSET 0.000000 0.000000 0.000000
									CHANNELS 3 Zrotation Yrotation Xrotation
									End Site
									{
										OFFSET 0.000000 0.000000 0.000000
									}
								}
							}
						}
					}
				}
			}
		}
	}
}
MOTION
Frames: 11
Frame Time: 0.008333
-33.839316 18.018008 -2.851729 -19.918126 73.613782 -15.632263 -2.108285 -0.557739 -0.483904 1.013584 -9.782157 -19.714799 -1.849435 8.258448 22.976657 5.698293 -6.778022 23.431008 0.622600 5.049600 14.049900 4.521259 -2.915898 3.828643 15.053854 17.130732 1.647819 3.555931 -3.914888 12.496148 -3.569128 8.026372 -1.877027 -1.152900 -6.817300 19.175300 0.528275 0.053756 14.777362 3.502178 0.307869 5.213082 1.627422 0.960780 -1.953361 -2.922401 6.826566 -4.074452 0.485936 7.990104 -10.579976 -1.573800 3.566900 -3.238700 -1.066538 -5.905081 0.589327 -76.829713 16.252560 35.963934 30.547373 -40.471199 -14.331681 0.706427 -1.745714 -5.860771 -0.552731 9.026532 -0.202000 -7.125000 0.000000 0.000000 -24.251200 39.568200 3.488000 2.273428 5.653301 2.343884 66.120195 -14.887082 46.009288 -25.480000 33.400937 -8.053461 0.769798 0.319436 -2.586146 -9.217893 -14.928433 2.644100 7.125000 0.000000 0.000000 16.249500 -44.749000 0.103500 
-33.838492 18.019037 -2.851729 -19.880412 73.644430 -15.575476 -2.106205 -0.560021 -0.490947 0.987411 -9.775311 -19.737224 -1.849506 8.262881 22.980797 5.745276 -6.948220 23.139352 0.453900 4.322100 11.984800 4.522382 -2.918326 3.837499 15.024845 17.126857 1.657652 3.565344 -3.883176 12.419090 -3.542454 7.945909 -1.783697 -1.132200 -6.758000 19.000300 0.524195 0.066661 14.808765 3.505934 0.322482 5.161958 1.636665 0.968287 -2.034619 -2.886382 6.810469 -4.038632 0.458215 7.965364 -10.518921 -1.588300 3.555500 -3.224200 -1.065809 -5.895997 0.586319 -76.842994 16.366964 36.024835 30.545464 -40.477571 -14.331998 0.707019 -1.745895 -5.873480 -0.563254 9.027188 -0.204000 -7.125000 0.000000 0.000000 -24.260200 39.568100 3.489600 2.270683 5.652731 2.345371 66.107883 -14.966615 45.997855 -25.463315 33.389283 -8.047958 0.773043 0.320981 -2.566238 -9.227691 -14.991263 2.658500 7.125000 0.000000 0.000000 16.258700 -44.812600 0.077300 
-33.817810 18.020375 -2.854713 -19.508073 73.254112 -15.294180 -2.097924 -0.494503 -0.433463 0.955661 -9.601697 -19.576951 -1.820551 8.279285 23.022104 5.741642 -6.954655 22.666284 0.545800 4.733100 13.148900 4.502357 -2.946523 3.830273 15.030627 17.271928 1.817768 3.567617 -3.893715 12.443147 -3.609906 8.211719 -1.679987 -1.123300 -6.732400 18.924900 0.571956 0.194306 14.596263 3.483646 0.492370 5.301763 1.539063 1.052902 -1.781936 -2.891478 6.796477 -4.103951 0.488226 7.954080 -10.524796 -1.575900 3.548900 -3.216200 -1.065036 -5.899757 0.589685 -76.847006 16.301720 36.015238 30.532337 -40.464801 -14.322290 0.707625 -1.747425 -5.871775 -0.606138 9.089976 -0.213400 -7.125000 0.000000 0.000000 -24.317100 39.623000 3.463400 2.277534 5.650490 2.346943 66.081187 -14.887729 45.971246 -25.483025 33.408274 -8.061258 0.774390 0.324165 -2.578141 -9.207655 -15.036687 2.661700 7.125000 0.000000 0.000000 16.290800 -44.857300 0.059000 
-33.838184 18.018420 -2.851935 -19.893627 73.633347 -15.593866 -2.100973 -0.553982 -0.485639 0.988611 -9.762865 -19.719054 -1.849941 8.254411 22.957688 5.813486 -7.173897 22.750960 0.488900 4.483400 12.440800 4.521587 -2.920018 3.833561 15.037431 17.153362 1.665199 3.563588 -3.893422 12.447156 -3.524438 7.895977 -1.725148 -1.083500 -6.615900 18.582200 0.542578 0.097707 14.772231 3.512167 0.366391 5.192824 1.624008 0.990079 -1.983013 -2.881412 6.803517 -4.052426 0.524243 7.958959 -10.510694 -1.568500 3.549500 -3.219600 -1.065175 -5.896034 0.586664 -76.828767 16.387382 36.111923 30.530083 -40.469273 -14.321164 0.707935 -1.748688 -5.927139 -0.611911 9.121989 -0.214900 -7.125000 0.000000 0.000000 -24.331900 39.653400 3.446100 2.273948 5.648562 2.346562 66.067021 -14.962265 45.976154 -25.510803 33.434801 -8.078181 0.775750 0.324678 -2.569759 -9.222720 -15.070800 2.672000 7.125000 0.000000 0.000000 16.287600 -44.892700 0.044300 
-33.826454 18.023359 -2.852964 -19.667426 73.472896 -15.416444 -2.108398 -0.522347 -0.453077 0.956717 -9.686281 -19.625035 -1.845374 8.250153 22.949037 5.800706 -7.135543 22.631255 0.357600 3.841700 10.631700 4.513916 -2.928764 3.827839 15.028574 17.196254 1.717011 3.567135 -3.889508 12.436580 -3.534575 7.949481 -1.632849 -1.078500 -6.601200 18.539100 0.576911 0.174986 14.674467 3.482171 0.467808 5.231598 1.548181 1.041386 -1.900218 -2.794711 6.780810 -4.011973 0.503371 7.925949 -10.496082 -1.588400 3.531300 -3.221000 -1.065867 -5.892566 0.589105 -76.782470 16.451779 36.188373 30.521092 -40.469484 -14.318463 0.709886 -1.749432 -5.915235 -0.665923 9.106819 -0.225300 -7.125000 0.000000 0.000000 -24.373000 39.635400 3.464500 2.271662 5.647900 2.346217 66.123810 -14.975826 45.881702 -25.486740 33.414540 -8.066539 0.776284 0.321923 -2.558511 -9.242058 -15.058198 2.674800 7.125000 0.000000 0.000000 16.265100 -44.880100 0.049500 
-33.823573 18.025211 -2.852964 -19.609655 73.448088 -15.370407 -2.113653 -0.514390 -0.441040 0.946289 -9.666187 -19.594524 -1.849283 8.237805 22.918010 5.818047 -7.188872 22.509901 0.296100 3.498800 9.670600 4.512450 -2.925834 3.818653 15.029081 17.210576 1.701155 3.560677 -3.912760 12.496270 -3.531441 7.939078 -1.618656 -1.061300 -6.549900 18.388700 0.589040 0.204153 14.644760 3.474175 0.506171 5.237938 1.524719 1.060527 -1.881286 -2.753485 6.769186 -3.988163 0.509638 7.909127 -10.479405 -1.593100 3.521600 -3.219300 -1.066074 -5.890289 0.589597 -76.760291 16.502602 36.250702 30.509146 -40.465470 -14.311693 0.710906 -1.750111 -5.924960 -0.696063 9.110685 -0.231200 -7.125000 0.000000 0.000000 -24.399600 39.637000 3.467900 2.270725 5.646333 2.346185 66.139808 -14.990542 45.834167 -25.481307 33.410977 -8.065394 0.777417 0.321513 -2.553463 -9.251770 -15.073710 2.680300 7.125000 0.000000 0.000000 16.260200 -44.895900 0.042900 
-33.820794 18.026960 -2.852758 -19.556099 73.425716 -15.326435 -2.117980 -0.506204 -0.430665 0.936350 -9.648193 -19.563959 -1.854423 8.224746 22.883745 5.834465 -7.237686 22.403324 0.244000 3.178700 8.776700 4.511377 -2.926939 3.815218 15.027684 17.225226 1.709664 3.561397 -3.913112 12.497814 -3.519173 7.904422 -1.571504 -1.044000 -6.497900 18.236000 0.601086 0.232592 14.607630 3.465704 0.543338 5.246945 1.501473 1.079402 -1.856440 -2.711026 6.757274 -3.965288 0.517033 7.891922 -10.463936 -1.597600 3.511600 -3.217900 -1.066465 -5.888066 0.590173 -76.737025 16.549239 36.312074 30.491843 -40.457315 -14.300955 0.711900 -1.750666 -5.931419 -0.726410 9.109905 -0.237100 -7.125000 0.000000 0.000000 -24.424800 39.634100 3.473800 2.269913 5.645221 2.346126 66.158581 -14.998813 45.781874 -25.474011 33.405414 -8.063152 0.778555 0.321028 -2.549517 -9.261175 -15.088108 2.685500 7.125000 0.000000 0.000000 16.255500 -44.910600 0.036900 
-33.819148 18.028298 -2.852346 -19.524312 73.423705 -15.300672 -2.121283 -0.501904 -0.424401 0.927589 -9.639176 -19.545880 -1.858492 8.215659 22.860630 5.853731 -7.297781 22.305113 0.192200 2.823500 7.787800 4.511248 -2.926629 3.811670 15.028030 17.238273 1.710595 3.560657 -3.917327 12.509256 -3.503749 7.856160 -1.537786 -1.026100 -6.443700 18.077300 0.610947 0.254746 14.578018 3.459161 0.572181 5.250661 1.483582 1.093986 -1.840280 -2.669158 6.745506 -3.940468 0.524188 7.874858 -10.447390 -1.602200 3.501700 -3.216500 -1.066956 -5.885757 0.590479 -76.715906 16.597835 36.371130 30.468791 -40.444856 -14.286010 0.712821 -1.751023 -5.936972 -0.754780 9.103335 -0.242500 -7.125000 0.000000 0.000000 -24.446500 39.626200 3.482600 2.268913 5.644232 2.345978 66.178539 -15.007681 45.727180 -25.465533 33.398725 -8.060405 0.779683 0.320562 -2.544166 -9.269097 -15.102463 2.690300 7.125000 0.000000 0.000000 16.251800 -44.924900 0.031000 
-33.816884 18.029327 -2.851935 -19.472882 73.415289 -15.259245 -2.124459 -0.496063 -0.417827 0.914340 -9.627685 -19.525708 -1.861039 8.209949 22.845352 5.872408 -7.358633 22.194294 0.148600 2.484000 6.845300 4.509905 -2.927811 3.809398 15.025575 17.252967 1.720777 3.559892 -3.920684 12.519069 -3.490388 7.814609 -1.506602 -1.008500 -6.389800 17.919800 0.617663 0.278830 14.541597 3.451547 0.602865 5.259019 1.465501 1.109707 -1.815712 -2.628004 6.732743 -3.920008 0.530232 7.856764 -10.430316 -1.606900 3.491300 -3.214100 -1.067553 -5.883528 0.590744 -76.698418 16.640388 36.423167 30.439007 -40.426985 -14.266084 0.713671 -1.751370 -5.938343 -0.784987 9.099722 -0.248300 -7.125000 0.000000 0.000000 -24.470500 39.620500 3.490200 2.268140 5.643597 2.345908 66.198614 -15.012271 45.669806 -25.457618 33.392531 -8.057950 0.780775 0.320252 -2.540208 -9.274640 -15.117371 2.694600 7.125000 0.000000 0.000000 16.250800 -44.939800 0.024800 
-33.815444 18.029944 -2.851317 -19.441923 73.417916 -15.236549 -2.126346 -0.491989 -0.413622 0.903738 -9.621661 -19.511250 -1.862920 8.205941 22.834685 5.894065 -7.429831 22.077936 0.114000 2.177400 5.996100 4.508971 -2.929194 3.808018 15.026458 17.266990 1.732282 3.559224 -3.923470 12.527324 -3.474933 7.765559 -1.480522 -0.990100 -6.332900 17.753500 0.624761 0.298456 14.509809 3.445948 0.627966 5.265940 1.450748 1.122563 -1.794668 -2.590054 6.720528 -3.902487 0.536853 7.839622 -10.413254 -1.610900 3.481500 -3.211300 -1.068159 -5.881452 0.590794 -76.685547 16.679650 36.467200 30.403820 -40.404644 -14.242180 0.714469 -1.751791 -5.936037 -0.818136 9.102679 -0.254800 -7.125000 0.000000 0.000000 -24.499300 39.620600 3.494900 2.267459 5.643114 2.345837 66.217632 -15.015339 45.612849 -25.450781 33.387153 -8.056004 0.781884 0.319913 -2.537058 -9.281463 -15.132426 2.699200 7.125000 0.000000 0.000000 16.248400 -44.954800 0.018600 
-33.815032 18.030047 -2.850494 -19.437623 73.440366 -15.237015 -2.127174 -0.491139 -0.413198 0.895789 -9.625156 -19.506216 -1.865171 8.203164 22.827023 5.919983 -7.514746 21.965995 0.086400 1.895500 5.217000 4.508597 -2.930492 3.808129 15.029074 17.276865 1.743553 3.558703 -3.924938 12.532653 -3.456593 7.705351 -1.463681 -0.970400 -6.271600 17.574400 0.631250 0.310954 14.485172 3.442956 0.644102 5.269684 1.441277 1.131007 -1.780038 -2.556353 6.708380 -3.886472 0.544612 7.822643 -10.397578 -1.614000 3.471900 -3.208700 -1.068751 -5.879542 0.590571 -76.677876 16.715871 36.502631 30.364499 -40.379006 -14.215311 0.715233 -1.752218 -5.930867 -0.853829 9.109363 -0.261900 -7.125000 0.000000 0.000000 -24.531500 39.623900 3.498000 2.266805 5.642781 2.345735 66.235028 -15.017055 45.555788 -25.445307 33.382896 -8.054941 0.782953 0.319600 -2.533991 -9.288225 -15.147251 2.703800 7.125000 0.000000 0.000000 16.246300 -44.969800 0.012500 
